HIERARCHY
ROOT Hips
{
	OFFSET 0.000000 0.000000 0.000000
	CHANNELS 6 Xposition Yposition Zposition Yrotation Xrotation Zrotation
	JOINT Chest
	{
		OFFSET 0.000000 -0.009282 11.569106
		CHANNELS 6 Xposition Yposition Zposition Yrotation Xrotation Zrotation
		JOINT Chest2
		{
			OFFSET -0.000000 0.016863 9.269641
			CHANNELS 6 Xposition Yposition Zposition Yrotation Xrotation Zrotation
			JOINT Chest3
			{
				OFFSET -0.000000 0.000000 8.374491
				CHANNELS 6 Xposition Yposition Zposition Yrotation Xrotation Zrotation
				JOINT Chest4
				{
					OFFSET -0.000000 0.000000 8.374493
					CHANNELS 6 Xposition Yposition Zposition Yrotation Xrotation Zrotation
					JOINT Neck
					{
						OFFSET -0.000000 0.000001 12.152554
						CHANNELS 6 Xposition Yposition Zposition Yrotation Xrotation Zrotation
						JOINT Head
						{
							OFFSET -0.000000 0.040100 7.802319
							CHANNELS 6 Xposition Yposition Zposition Yrotation Xrotation Zrotation
							End Site
							{
								OFFSET -0.000000 0.020946 14.853096
							}
						}
					}
					JOINT RightCollar
					{
						OFFSET 2.894404 0.000001 6.791374
						CHANNELS 6 Xposition Yposition Zposition Yrotation Xrotation Zrotation
						JOINT RightShoulder
						{
							OFFSET 13.574684 0.000001 0.000000
							CHANNELS 6 Xposition Yposition Zposition Yrotation Xrotation Zrotation
							JOINT RightElbow
							{
								OFFSET 23.923903 0.000002 0.000000
								CHANNELS 6 Xposition Yposition Zposition Yrotation Xrotation Zrotation
								JOINT RightWrist
								{
									OFFSET 19.846718 0.012767 0.000000
									CHANNELS 6 Xposition Yposition Zposition Yrotation Xrotation Zrotation
									End Site
									{
										OFFSET 14.973145 0.000001 0.000000
									}
								}
							}
						}
					}
					JOINT LeftCollar
					{
						OFFSET -2.894404 0.000000 6.791374
						CHANNELS 6 Xposition Yposition Zposition Yrotation Xrotation Zrotation
						JOINT LeftShoulder
						{
							OFFSET -13.574684 -0.000001 0.000000
							CHANNELS 6 Xposition Yposition Zposition Yrotation Xrotation Zrotation
							JOINT LeftElbow
							{
								OFFSET -23.923903 -0.000002 0.000000
								CHANNELS 6 Xposition Yposition Zposition Yrotation Xrotation Zrotation
								JOINT LeftWrist
								{
									OFFSET -19.846718 0.012763 0.000000
									CHANNELS 6 Xposition Yposition Zposition Yrotation Xrotation Zrotation
									End Site
									{
										OFFSET -14.973145 -0.000001 0.000000
									}
								}
							}
						}
					}
				}
			}
		}
	}
	JOINT RightHip
	{
		OFFSET 9.469263 0.004643 0.045487
		CHANNELS 6 Xposition Yposition Zposition Yrotation Xrotation Zrotation
		JOINT RightKnee
		{
			OFFSET 0.000000 0.002666 -40.478676
			CHANNELS 6 Xposition Yposition Zposition Yrotation Xrotation Zrotation
			JOINT RightAnkle
			{
				OFFSET 0.000000 0.049110 -35.224068
				CHANNELS 6 Xposition Yposition Zposition Yrotation Xrotation Zrotation
				JOINT RightToe
				{
					OFFSET -0.000001 12.539530 -6.151390
					CHANNELS 6 Xposition Yposition Zposition Yrotation Xrotation Zrotation
					End Site
					{
						OFFSET -0.000001 5.044996 -1.291870
					}
				}
			}
		}
	}
	JOINT LeftHip
	{
		OFFSET -9.469263 0.004641 0.045487
		CHANNELS 6 Xposition Yposition Zposition Yrotation Xrotation Zrotation
		JOINT LeftKnee
		{
			OFFSET 0.000000 0.002666 -40.478676
			CHANNELS 6 Xposition Yposition Zposition Yrotation Xrotation Zrotation
			JOINT LeftAnkle
			{
				OFFSET 0.000000 0.049110 -35.224068
				CHANNELS 6 Xposition Yposition Zposition Yrotation Xrotation Zrotation
				JOINT LeftToe
				{
					OFFSET -0.000001 12.539530 -6.151390
					CHANNELS 6 Xposition Yposition Zposition Yrotation Xrotation Zrotation
					End Site
					{
						OFFSET -0.000001 5.044996 -1.291870
					}
				}
			}
		}
	}
}
MOTION
Frames: 4
Frame Time: 0.016667
5.830502 5.484044 83.082985 -10.285135 -3.433144 -106.101040 -0.000000 -0.009284 11.569102 0.414192 -2.230932 -0.543147 0.000001 0.016862 9.269642 0.180092 -0.989780 -0.247545 0.000000 -0.000001 8.374494 0.180092 -0.989782 -0.247544 0.000000 0.000002 8.374501 0.134665 -0.742410 -0.185360 0.000000 0.000002 12.152555 3.407085 -18.885485 -7.994032 -0.000000 0.040107 7.802324 3.679373 1.088804 -13.553657 2.894404 -0.000000 6.791374 5.312094 -2.849026 -8.098986 13.574685 0.000001 0.000003 62.084883 0.940857 38.963794 23.923912 0.000019 0.000001 38.977789 -52.579138 58.797178 19.846706 0.012762 0.000004 -29.346666 21.047945 28.595161 -2.894404 -0.000001 6.791385 -6.579712 -1.589717 -2.740953 -13.574686 -0.000004 0.000010 -57.889863 -13.904821 -44.149574 -23.923914 -0.000003 -0.000003 -24.562409 -19.810626 -38.771542 -19.846724 0.012767 0.000004 8.783577 24.972961 -54.703064 9.469262 0.004642 0.045484 1.295026 -14.099322 -9.674780 0.000066 0.002660 -40.478512 -4.315553 3.463972 -1.691848 -0.000008 0.049106 -35.224018 5.689837 0.730649 0.235461 -0.000000 12.539528 -6.151393 -0.003677 -0.004826 0.000237 -9.469262 0.004641 0.045486 0.417547 -14.882362 -22.251365 -0.000874 0.002506 -40.478432 -0.806869 5.932060 19.021221 -0.000906 0.048950 -35.224068 0.655789 -0.122685 19.838672 -0.000001 12.539531 -6.151392 0.051737 0.002076 0.009672 
5.823618 5.491203 83.083710 -10.260121 -3.421948 -106.083595 0.000001 -0.009282 11.569101 0.405005 -2.235446 -0.531280 -0.000001 0.016864 9.269635 0.175657 -0.991152 -0.243983 -0.000000 0.000001 8.374483 0.175658 -0.991152 -0.243981 -0.000000 0.000001 8.374501 0.131343 -0.743434 -0.182698 0.000001 0.000001 12.152540 3.411894 -18.829510 -7.961038 -0.000001 0.040100 7.802318 3.694098 1.194192 -13.492970 2.894404 0.000001 6.791372 5.322972 -2.847488 -8.112893 13.574683 0.000000 0.000000 62.112060 0.934669 38.968688 23.923904 0.000010 -0.000003 38.891756 -52.613968 58.878389 19.846714 0.012758 -0.000001 -29.295866 21.006732 28.564993 -2.894404 0.000000 6.791373 -6.580749 -1.572954 -2.747126 -13.574681 -0.000000 0.000001 -57.867432 -13.910713 -44.152009 -23.923916 -0.000008 -0.000012 -24.455509 -19.906424 -38.869784 -19.846720 0.012751 0.000006 8.756307 24.993715 -54.715208 9.469264 0.004643 0.045486 1.292811 -14.079584 -9.670101 0.000067 0.002660 -40.478512 -4.315996 3.489698 -1.724800 -0.000008 0.049107 -35.224041 5.696548 0.712190 0.241739 0.000001 12.539528 -6.151386 -0.006155 -0.005926 0.000179 -9.469261 0.004642 0.045492 0.411918 -14.855188 -22.239986 -0.000871 0.002506 -40.478416 -0.799451 5.947925 19.015955 -0.000911 0.048950 -35.224068 0.648475 -0.134982 19.950535 -0.000002 12.539531 -6.151395 0.051675 -0.001642 0.011437 
5.815479 5.502460 83.084198 -10.235611 -3.406769 -106.056862 -0.000000 -0.009283 11.569094 0.390650 -2.233454 -0.526554 0.000001 0.016865 9.269641 0.170965 -0.991080 -0.241791 0.000000 0.000001 8.374500 0.170965 -0.991082 -0.241793 0.000000 0.000000 8.374497 0.127828 -0.743378 -0.181060 0.000001 0.000004 12.152566 3.415975 -18.773084 -7.928678 0.000001 0.040106 7.802313 3.707313 1.300316 -13.433664 2.894404 0.000001 6.791376 5.338589 -2.850653 -8.116823 13.574685 0.000002 -0.000004 62.123562 0.919462 38.964358 23.923906 0.000018 0.000000 38.719738 -52.679712 59.047723 19.846710 0.012770 -0.000004 -29.293428 20.983470 28.515037 -2.894403 0.000000 6.791377 -6.580663 -1.566719 -2.737473 -13.574685 -0.000001 0.000007 -57.846614 -13.911498 -44.162115 -23.923912 0.000001 -0.000002 -24.293866 -20.064625 -38.998707 -19.846716 0.012770 0.000010 8.728870 25.027811 -54.746671 9.469263 0.004644 0.045475 1.290119 -14.061495 -9.683027 0.000069 0.002660 -40.478504 -4.319588 3.522471 -1.745451 -0.000008 0.049107 -35.224037 5.705628 0.689903 0.241939 0.000000 12.539529 -6.151390 -0.007728 -0.006502 0.001829 -9.469263 0.004642 0.045478 0.405690 -14.825592 -22.239045 -0.000871 0.002508 -40.478432 -0.793318 5.961041 19.000951 -0.000908 0.048950 -35.224072 0.639648 -0.155663 19.892975 -0.000001 12.539536 -6.151392 0.048640 -0.000627 0.005569 
5.809719 5.506831 83.084648 -10.216039 -3.397807 -106.033646 -0.000000 -0.009283 11.569114 0.378575 -2.235547 -0.508144 0.000000 0.016863 9.269637 0.164561 -0.990501 -0.235834 -0.000001 0.000002 8.374491 0.164561 -0.990501 -0.235837 -0.000000 0.000001 8.374501 0.123035 -0.742939 -0.176605 0.000001 0.000003 12.152553 3.425071 -18.723084 -7.903858 0.000001 0.040097 7.802330 3.727861 1.394637 -13.386378 2.894405 0.000001 6.791375 5.364617 -2.859178 -8.130686 13.574685 -0.000000 0.000001 62.129067 0.905577 38.953802 23.923891 0.000012 0.000005 38.408087 -52.785454 59.352930 19.846716 0.012772 -0.000007 -29.290173 20.973218 28.499489 -2.894403 0.000001 6.791374 -6.567332 -1.574678 -2.739604 -13.574684 -0.000001 0.000004 -57.826533 -13.903886 -44.185088 -23.923903 -0.000008 -0.000003 -24.054905 -20.286128 -39.169492 -19.846718 0.012759 -0.000004 8.701619 25.078950 -54.802146 9.469262 0.004643 0.045495 1.296835 -14.051341 -9.700015 0.000070 0.002660 -40.478504 -4.329187 3.554387 -1.761917 -0.000009 0.049105 -35.224033 5.715943 0.668602 0.247164 -0.000001 12.539526 -6.151394 -0.008993 -0.004838 0.001470 -9.469264 0.004642 0.045488 0.402112 -14.797157 -22.238819 -0.000873 0.002507 -40.478432 -0.793341 5.966774 18.994657 -0.000915 0.048948 -35.224064 0.633768 -0.163146 19.947619 -0.000000 12.539537 -6.151391 0.050628 -0.004516 0.010093 
